<svg xmlns="http://www.w3.org/2000/svg" viewBox="0 0 32 32">
  <rect width="32" height="32" rx="7" fill="#4F46E5"/>
  <!-- Heroicons book-open, scaled from 24x24 to fit in 32x32 with padding -->
  <g transform="translate(4, 4) scale(1.0)">
    <path stroke="white" stroke-width="1.5" fill="none" stroke-linecap="round" stroke-linejoin="round"
      d="M12 6.042A8.967 8.967 0 0 0 6 3.75c-1.052 0-2.062.18-3 .512v14.25A8.987 8.987 0 0 1 6 18c2.305 0 4.408.867 6 2.292m0-14.25a8.966 8.966 0 0 1 6-2.292c1.052 0 2.062.18 3 .512v14.25A8.987 8.987 0 0 0 18 18a8.967 8.967 0 0 0-6 2.292m0-14.25v14.25"/>
  </g>
</svg>
